<svg xmlns="http://www.w3.org/2000/svg" xmlns:xlink="http://www.w3.org/1999/xlink"><symbol id="sprite-arrow" fill="none" viewBox="0 0 14 9"><path fill="#fff" d="M13.35 4.85a.5.5 0 0 0 0-.7l-3.18-3.19a.5.5 0 0 0-.7.71l2.82 2.83-2.83 2.83a.5.5 0 1 0 .71.7zm-13.35.15h13v-1h-13z"/></symbol><use xlink:href="#sprite-arrow" width="14" height="9"/><view id="sprite-arrow-view" viewBox="0 0 14 9"/><symbol id="sprite-boots" fill="none" viewBox="0 0 25 25"><path fill="#fff" d="M0 0h25v25h-25z"/><path fill="#2D383F" d="M24.64 16.27c.78-2.44.14-5.2-.54-7.11a.4.4 0 0 0-.06-.2 17 17 0 0 0-.63-1.5.9.9 0 0 0 .56-.83v-3.7a.9.9 0 0 0-.89-.88h-10.9a.44.44 0 0 0-.45.47c.15 2.66-.04 4.47-.6 5.74l-.04.04v.07a5 5 0 0 1-.86 1.26l-.04.02v.03q-.79.75-1.77 1.2a31 31 0 0 1-3.51 1.3l-.23.08c-4.15 1.38-4.69 3.87-4.68 5.13v3.22q0 .24.21.38a13 13 0 0 0 3.27 1.4.44.44 0 0 0 .56-.44v-.1h.65v.44a.44.44 0 0 0 .37.45q.59.09 1.15.14a.44.44 0 0 0 .48-.44v-.56h.66v.63c0 .24.2.44.44.44q.55.01 1.15-.05a.44.44 0 0 0 .4-.45v-.57h.66v.39a.44.44 0 0 0 .51.44 15 15 0 0 0 2.4-.57l.07-.03c3.11-1.78 5.08-.32 5.16-.25q.12.09.27.09h.55a.44.44 0 0 0 .45-.45v-.75h.63v.74c0 .25.2.45.44.45h1.43a.44.44 0 0 0 .45-.44v-.75h.65v.74c0 .25.2.45.45.45h1.1a.44.44 0 0 0 .44-.44v-4.79a.44.44 0 0 0-.36-.44m-10.53-13.32h8.95v3.67h-8.95zm-5.58 8.85v.02q.55.45 1 .98a1 1 0 0 0-.11.45.85.85 0 1 0 .92-.84q-.42-.58-.95-1.05.6-.34 1.11-.8.65.61 1.2 1.3a.85.85 0 1 0 .8-.56h-.11q-.59-.74-1.27-1.38.32-.4.56-.83 1.03.53 1.99 1.2a.86.86 0 1 0 .47-.77 20 20 0 0 0-2.09-1.23c.49-1.29.7-3 .6-5.33h.58v3.68c0 .49.4.89.89.89h8.31q.19.36.53 1.17h-.18a4.88 4.88 0 0 0-2.88 8.8c-3.6.95-9 2.07-13.54 1.78.84-3.35-.16-5.41-.81-6.32a30 30 0 0 0 2.98-1.16m-3.88 1.41c.48.57 1.73 2.46.82 5.95a11 11 0 0 1-4.56-1.38l-.03-.3v-.04c-.04-.94.32-2.99 3.77-4.23m19.25 7.84v-.74a.44.44 0 0 0-.44-.44h-1.54a.44.44 0 0 0-.45.44v.74h-.54v-.74a.44.44 0 0 0-.45-.44h-1.53a.44.44 0 0 0-.44.44v.72c-.6-.38-2.81-1.47-5.94.28a14 14 0 0 1-1.7.44v-.3a.44.44 0 0 0-.44-.45h-1.53a.44.44 0 0 0-.45.44v.61h-.22v-.62a.44.44 0 0 0-.45-.44h-1.54a.44.44 0 0 0-.44.44v.53l-.23-.03v-.5a.44.44 0 0 0-.44-.44h-1.54a.44.44 0 0 0-.45.39q-1.18-.39-2.26-1.02v-1.59c1.93 1.03 4.44 1.42 7.1 1.42 7.08 0 15.17-2.71 16.13-3.04v3.9zm-.22-4.68c-.37.12-1.3.44-2.58.78a4 4 0 0 1 2.2-7.56v.01c.66 1.89 1.24 4.57.38 6.77"/><path fill="#2D383F" d="M15.82 3.48a1.3 1.3 0 1 0 0 2.59 1.3 1.3 0 0 0 0-2.59m0 1.7a.4.4 0 1 1 0-.8.4.4 0 0 1 0 .8"/></symbol><use xlink:href="#sprite-boots" width="25" height="25" y="9"/><view id="sprite-boots-view" viewBox="0 9 25 25"/><symbol id="sprite-level" fill="none" viewBox="0 0 12 12"><path stroke="#fff" stroke-linecap="round" stroke-miterlimit="16" d="M10.9 11.46h-1.95v-10.92h1.96zm-3.92 0v-7.94h-1.96v7.93zm-3.93 0v-4.97h-1.96v4.97z"/></symbol><use xlink:href="#sprite-level" width="12" height="12" y="34"/><view id="sprite-level-view" viewBox="0 34 12 12"/><symbol id="sprite-logo" fill="none" viewBox="0 0 142 42"><path fill="#fff" d="m15.73 27.25 3.77-3.9 4.29 3.9h7.34l-11.68-11.25-11.58 11.24z"/><path fill="#fff" d="m26.52 9.2-5.56 5.56 3.67 3.7 1.89-1.86 10.31 10.09a16.5 16.5 0 0 1-15.5 10.55c-9.13 0-16.53-7.26-16.53-16.24a16.45 16.45 0 0 1 16.58-16.23c8.1 0 14.89 5.78 16.25 13.32l5 5.18a20.7 20.7 0 0 0-6.12-17.11 21.4 21.4 0 0 0-15.13-6.16 21.4 21.4 0 0 0-15.11 6.15c-4.06 3.98-6.27 9.2-6.27 14.85s2.21 10.87 6.26 14.85 9.42 6.15 15.12 6.15 11.07-2.17 15.12-6.15a20.5 20.5 0 0 0 5.28-8.56c.19-.55.33-1.16.47-1.71l-4.33-4.49zm33.9 4.3h3.14l-1.72 8.46h5.3l-.5 2.45h-8.45zm9.69 0h3.14l-2.22 10.91h-3.15zm8.03 2.38-.5 2.4h4.91l-.49 2.39h-4.89l-.76 3.74h-3.15l2.23-10.91h8.7l-.5 2.38zm10.14 0-.36 1.84h4.93l-.46 2.3h-4.95l-.4 2h5.83l-.5 2.4h-8.92l2.23-10.93h8.7l-.5 2.4zm9.92.06h-3.41l.5-2.44h9.97l-.51 2.44h-3.4l-1.73 8.47h-3.15zm11.85 8.69q-1.68 0-2.93-.6-1.25-.62-1.93-1.7-.66-1.1-.66-2.5 0-1.88.87-3.37a6 6 0 0 1 2.46-2.34q1.59-.84 3.6-.84 1.69 0 2.93.6 1.25.61 1.92 1.7.68 1.1.68 2.5 0 1.87-.89 3.37-.87 1.5-2.46 2.34-1.57.84-3.59.84m.27-2.56q1.05 0 1.85-.51.79-.52 1.22-1.38a4 4 0 0 0 .43-1.91q0-1.11-.7-1.77-.68-.67-1.92-.67-1.05 0-1.85.52a3.4 3.4 0 0 0-1.22 1.39 4 4 0 0 0-.43 1.9q0 1.1.69 1.78.7.65 1.93.65m12.58 2.56q-1.45 0-2.5-.47-1.05-.48-1.6-1.37-.56-.89-.56-2.09 0-.5.13-1.15l1.24-6.06h3.14l-1.22 6a4 4 0 0 0-.1.87q0 1.71 1.85 1.71 1 0 1.57-.59.59-.6.87-1.98l1.23-6h3.1l-1.26 6.19q-1.02 4.94-5.9 4.94m18.53-7.66q0 1.5-.81 2.6-.81 1.07-2.28 1.57l1.9 3.27h-3.3l-1.64-2.9h-1.6l-.58 2.9h-3.14l2.22-10.92h4.75q2.13 0 3.3.92 1.18.92 1.18 2.56m-3.18.3q0-.67-.46-1-.46-.34-1.29-.34h-1.65l-.67 3.2h1.88q1.05 0 1.62-.49t.57-1.37m-77.96 17.44a2 2 0 0 1-1.04-.25 2 2 0 0 1-.73-.7 2 2 0 0 1-.26-.98q0-.55.26-1 .26-.43.73-.68t1.04-.26 1.03.25q.47.25.73.7.27.44.27.98t-.27 1-.73.69q-.45.25-1.03.25m0-.36q.46 0 .83-.2t.58-.57.21-.8-.21-.8a1.5 1.5 0 0 0-.58-.57 2 2 0 0 0-.83-.2q-.46 0-.83.2a1.5 1.5 0 0 0-.59.56q-.2.36-.2.8t.2.81.59.57.83.2m4.4-2.55q.42 0 .75.18t.52.51a1.5 1.5 0 0 1 .18.76q0 .43-.18.76a1.3 1.3 0 0 1-.52.51q-.33.18-.74.18-.36 0-.64-.14a1 1 0 0 1-.47-.42v1.59h-.39v-3.91h.38v.56q.17-.28.46-.43t.66-.15m-.03 2.56q.3 0 .55-.14a1 1 0 0 0 .39-.4q.14-.25.14-.57 0-.33-.14-.58a1 1 0 0 0-.39-.4 1 1 0 0 0-.55-.14q-.3 0-.56.14-.24.15-.39.4a1 1 0 0 0-.13.58q0 .32.13.58.15.25.4.4.24.13.55.13m4.37-2.2h-1.66v2.51h-.4v-2.85h2.06zm1.57-.36q.57 0 .87.28t.3.82v1.77h-.37v-.44a1 1 0 0 1-.4.35q-.25.12-.6.12-.49 0-.77-.23a.7.7 0 0 1-.29-.6q0-.36.27-.59t.85-.22h.92v-.17q0-.37-.2-.56-.22-.2-.62-.2-.28 0-.53.1-.25.08-.44.24l-.17-.29a2 2 0 0 1 .53-.28 2 2 0 0 1 .65-.1m-.14 2.6q.33 0 .57-.15a1 1 0 0 0 .35-.43v-.47h-.9q-.76 0-.76.5a.5.5 0 0 0 .2.4q.2.15.54.15m2.36-2.58h.4v1.26h1.82v-1.26h.4v2.85h-.4v-1.26h-1.83v1.26h-.39zm3.73 0h.39v2.27l1.94-2.27h.35v2.85h-.4v-2.26l-1.93 2.26h-.35zm5.16 1.37a1 1 0 0 1 .47.24.6.6 0 0 1 .17.42.6.6 0 0 1-.17.45q-.18.2-.48.3a2 2 0 0 1-.65.1q-.32 0-.62-.08a2 2 0 0 1-.53-.27l.13-.28q.2.14.47.22.26.09.53.09.4 0 .66-.15t.26-.4a.4.4 0 0 0-.21-.36q-.21-.13-.58-.13h-.5v-.28h.48q.33 0 .53-.12.2-.13.2-.33 0-.23-.23-.36-.22-.13-.58-.13-.47 0-.93.23l-.1-.3a2.3 2.3 0 0 1 1.07-.26q.33 0 .6.1.27.09.42.26t.15.4a.6.6 0 0 1-.16.39 1 1 0 0 1-.4.25m2.53-1.4q.57 0 .88.3.3.27.3.81v1.77h-.38v-.44a1 1 0 0 1-.39.35q-.25.12-.6.12-.5 0-.78-.23a.7.7 0 0 1-.29-.6q0-.36.27-.59t.85-.22h.93v-.17q0-.37-.21-.56t-.62-.2q-.27 0-.53.1-.25.08-.43.24l-.18-.29a2 2 0 0 1 .53-.28 2 2 0 0 1 .65-.1m-.14 2.6q.33 0 .57-.15a1 1 0 0 0 .36-.43v-.47h-.92q-.74 0-.74.5a.5.5 0 0 0 .2.4q.19.15.53.15m5.39-.06v1.05h-.37v-.72h-2.66v-2.85h.4v2.52h1.77v-2.52h.39v2.52zm.75-2.52h.4v2.27l1.93-2.27h.35v2.85h-.4v-2.26l-1.93 2.26h-.35zm6.03 0v2.85h-.36v-.94h-1.02l-.67.94h-.43l.73-1a1 1 0 0 1-.52-.3 1 1 0 0 1-.18-.57q0-.48.33-.73t.9-.25zm-2.06.99q0 .63.83.63h.87v-1.28h-.85q-.85 0-.85.65m7.24-.99v2.85h-.4v-2.5h-1.82v2.5h-.4v-2.85zm2.3 2.88q-.41 0-.75-.18a1.4 1.4 0 0 1-.53-.52 1.5 1.5 0 0 1-.2-.75q0-.42.2-.75t.53-.52.76-.18.76.18.52.52q.2.33.2.75 0 .41-.2.75-.19.33-.52.52a2 2 0 0 1-.76.18m0-.34q.3 0 .55-.13a1 1 0 0 0 .39-.4 1 1 0 0 0 .14-.58 1 1 0 0 0-.14-.58 1 1 0 0 0-.39-.4 1 1 0 0 0-.55-.13q-.31 0-.56.14a1 1 0 0 0-.39.39 1 1 0 0 0-.13.58q0 .32.13.58.15.25.4.4.24.13.55.13m4.03.31-.93-1.19-.92 1.2h-.44l1.14-1.47-1.09-1.39h.44l.88 1.12.87-1.12h.43l-1.1 1.39 1.16 1.46zm2.18.03q-.42 0-.75-.18a1.4 1.4 0 0 1-.53-.52 1.5 1.5 0 0 1-.2-.75q0-.42.2-.75.19-.33.53-.52.33-.18.75-.18t.76.18q.34.19.53.52t.19.75q0 .41-.2.75-.18.33-.52.52a2 2 0 0 1-.76.18m0-.34q.31 0 .56-.13a1 1 0 0 0 .38-.4 1 1 0 0 0 .14-.58 1 1 0 0 0-.14-.58 1 1 0 0 0-.38-.4 1 1 0 0 0-.56-.13q-.3 0-.55.14a1 1 0 0 0-.4.39 1 1 0 0 0-.13.58q0 .32.14.58t.39.4.55.13m5.13-.02v1.02h-.37v-.69h-2.6v.7h-.37v-1.03h.17q.3-.02.4-.43t.14-1.13l.04-.96h2.14v2.52zm-2.27-1.54q-.03.6-.1 1-.08.39-.28.54h1.8v-2.18h-1.39zm4.24 1.9q-.42 0-.76-.18a1.4 1.4 0 0 1-.53-.52 1.5 1.5 0 0 1-.2-.75q0-.42.2-.75t.53-.52.76-.18.75.18.53.52q.2.33.2.75 0 .41-.2.75-.19.33-.53.52a2 2 0 0 1-.75.18m0-.34q.3 0 .55-.13a1 1 0 0 0 .39-.4q.14-.26.13-.58 0-.33-.13-.58a1 1 0 0 0-.39-.4 1 1 0 0 0-.55-.13q-.31 0-.56.14a1 1 0 0 0-.39.39 1 1 0 0 0-.14.58q0 .32.14.58t.39.4.56.13m4.16-1.16q.6.13.6.7 0 .37-.29.57t-.84.2h-1.32v-2.85h1.28q.5 0 .78.19a.6.6 0 0 1 .28.54q0 .24-.13.4a1 1 0 0 1-.36.25m-1.47-.11h.88q.33 0 .5-.12a.4.4 0 0 0 .2-.37.4.4 0 0 0-.2-.36q-.17-.12-.5-.12h-.88zm.92 1.28q.38 0 .57-.12t.19-.37-.18-.38-.54-.12h-.96v.99zm5.36-1.17q.59.13.59.7 0 .37-.28.57t-.84.2h-1.32v-2.85h1.28q.5 0 .78.19a.6.6 0 0 1 .28.54.6.6 0 0 1-.13.4 1 1 0 0 1-.36.25m-1.47-.11h.87q.34 0 .52-.12a.4.4 0 0 0 .18-.37.4.4 0 0 0-.19-.36q-.17-.12-.5-.12h-.88zm.92 1.28q.38 0 .56-.12.2-.12.2-.37 0-.26-.18-.38t-.54-.12h-.96v.99zm5.56-2.2h-1.66v2.5h-.4v-2.85h2.06zm1.63 2.53q-.42 0-.76-.18a1.4 1.4 0 0 1-.53-.52 1.5 1.5 0 0 1-.2-.75q0-.42.2-.75t.53-.52.76-.18.76.18.52.52q.2.33.2.75 0 .41-.2.75-.19.33-.52.52a2 2 0 0 1-.76.18m0-.34q.3 0 .55-.13a1 1 0 0 0 .39-.4 1 1 0 0 0 .14-.58 1 1 0 0 0-.14-.58 1 1 0 0 0-.39-.4 1 1 0 0 0-.55-.13q-.31 0-.56.14a1 1 0 0 0-.38.39 1 1 0 0 0-.14.58q0 .32.14.58t.38.4.56.13m3.81-2.56q.4 0 .74.18t.52.51.19.76-.2.76q-.18.33-.51.51t-.74.18q-.35 0-.64-.14a1 1 0 0 1-.46-.42v1.59h-.4v-3.91h.38v.56a1 1 0 0 1 .46-.43q.3-.15.66-.15m-.03 2.56q.3 0 .55-.14a1 1 0 0 0 .4-.4 1 1 0 0 0 .14-.57 1 1 0 0 0-.15-.58 1 1 0 0 0-.39-.4 1 1 0 0 0-.55-.14q-.3 0-.56.14a1 1 0 0 0-.38.4 1 1 0 0 0-.14.58q0 .32.14.58t.38.4.56.13m3.54-1.53q.55 0 .83.24.3.23.3.67 0 .46-.32.7-.3.24-.88.24h-1.15v-2.86h.4v1zm1.6-1.01h.4v2.85h-.4zm-1.7 2.57q.41 0 .61-.16.21-.17.21-.49t-.2-.47-.61-.15l-.74-.01v1.27z"/></symbol><use xlink:href="#sprite-logo" width="142" height="42" y="46"/><view id="sprite-logo-view" viewBox="0 46 142 42"/><symbol id="sprite-map" fill="none" viewBox="0 0 25 25"><g clip-path="url(#a)"><path fill="#fff" d="M0 0h25v25h-25z"/><path fill="#2D383F" d="M24.17 22.28v-15.58a.46.46 0 0 0-.6-.46v.02l-2.09.65a6 6 0 0 0 .39-1.82 5.1 5.1 0 0 0-10.19 0 6 6 0 0 0 .36 1.74l-3.45-1.23h-.16l-.16.03-7.14 2.78a.5.5 0 0 0-.3.39v15.6a.46.46 0 0 0 .63.43l6.98-2.7 7.97 2.85q.15.05.3 0l7.14-2.24a.5.5 0 0 0 .32-.46m-7.4-21.35a4.17 4.17 0 0 1 4.17 4.16c0 1.81-2.72 6.82-4.17 9.27-1.45-2.47-4.16-7.48-4.16-9.27a4.17 4.17 0 0 1 4.16-4.16m6.49 21.03-6.24 1.95v-3.53a.46.46 0 0 0-.92 0v3.5l-7.2-2.58v-2.96a.46.46 0 0 0-.93 0v2.96l-6.22 2.43v-7.16l2.3-.93a.46.46 0 1 0-.35-.86l-1.95.79v-6.45l6.22-2.4v1.38a.46.46 0 0 0 .93 0v-1.4l3.55 1.27a64 64 0 0 0 3.92 7.55.46.46 0 0 0 .8 0 65 65 0 0 0 3.9-7.5l2.17-.69.02 7.6-2.35.56a.47.47 0 0 0 .1.93h.12l2.13-.52z"/><path fill="#2D383F" d="M16.76 2.4a2.69 2.69 0 1 0 0 5.39 2.69 2.69 0 0 0 0-5.39m0 4.46a1.77 1.77 0 0 1-1.75-1.77h-.02a1.76 1.76 0 1 1 1.77 1.77m-6.06 7.1v.02l-2.24-.97a.5.5 0 0 0-.36 0l-1.9.77a.46.46 0 0 0 .35.86l1.72-.7 2.06.88.18.04a.46.46 0 0 0 .19-.9m7.57 2.66a.46.46 0 0 0-.52-.32v-.04l-1.15.28-1.94-.85a.47.47 0 0 0-.37.86l2.08.92.19.04h.1l1.3-.32a.46.46 0 0 0 .3-.57"/></g><defs><clipPath id="a"><path fill="#fff" d="M0 0h25v25h-25z"/></clipPath></defs></symbol><use xlink:href="#sprite-map" width="25" height="25" y="88"/><view id="sprite-map-view" viewBox="0 88 25 25"/><symbol id="sprite-moon" fill="none" viewBox="0 0 12 12"><path fill="#fff" d="M11.2 6.75a.4.4 0 0 0-.32.07q-.55.47-1.24.73a4 4 0 0 1-1.41.25 4 4 0 0 1-2.9-1.2 4 4 0 0 1-1.2-2.91q0-.72.22-1.36a4 4 0 0 1 .67-1.2.36.36 0 0 0-.06-.5.4.4 0 0 0-.32-.07 5.6 5.6 0 0 0-2.95 1.98 5.55 5.55 0 0 0 .47 7.3 5.5 5.5 0 0 0 3.9 1.61 5.5 5.5 0 0 0 3.42-1.19 5.5 5.5 0 0 0 1.95-3.06.34.34 0 0 0-.23-.45m-2.14 2.93a4.8 4.8 0 0 1-6.35-.38 4.8 4.8 0 0 1-1.41-3.4c0-1.1.36-2.11.99-2.92a5 5 0 0 1 1.6-1.35 5 5 0 0 0-.46 2.07c0 1.33.54 2.55 1.4 3.42a4.8 4.8 0 0 0 3.41 1.41q.88 0 1.66-.3.27-.09.53-.22a5 5 0 0 1-1.37 1.67"/></symbol><use xlink:href="#sprite-moon" width="12" height="12" y="113"/><view id="sprite-moon-view" viewBox="0 113 12 12"/><symbol id="sprite-mountain" fill="none" viewBox="0 0 25 25"><g clip-path="url(#a)"><path fill="#fff" d="M0 0h25v25h-25z"/><path fill="#2D383F" d="m23.42 24.19-4.05-9.4-3.81-8.88a.48.48 0 0 0-.88 0l-3.4 7.9-1.34 3.1-2.93-6.75a.48.48 0 0 0-.88 0l-2.75 6.36-3.34 7.66a.48.48 0 0 0 .44.67h22.5a.48.48 0 0 0 .43-.66m-8.3-16.9 3.1 7.2h-1.09l-1.96-2.17a.48.48 0 0 0-.76.07l-.73 1.13h-1.23zm-8.54 4.24 2.45 5.66h-1.34a.5.5 0 0 0-.4.22l-.48.76-1.23-1.74a.5.5 0 0 0-.39-.2h-.63zm-5.34 12.37 2.9-6.72h.8l1.5 2.12a.5.5 0 0 0 .38.2.5.5 0 0 0 .4-.21l.73-1.14h1.49l2.48 5.73zm11.73 0-2.5-5.77 1.57-3.65h1.9a.5.5 0 0 0 .4-.23l.54-.81 1.68 1.87q.15.15.36.15h1.7l3.64 8.45zm-5.35-21.82a2.25 2.25 0 0 0-4.35.8v.26a2.25 2.25 0 0 0 .9 4.29l.03.02h3.34a2.68 2.68 0 1 0 .08-5.37m-.05 4.43h-3.34a1.3 1.3 0 1 1-.27-2.59.5.5 0 0 0 .36-.62 1.3 1.3 0 1 1 2.5-.64c.05.25.28.42.54.39h.21a1.73 1.73 0 0 1 0 3.46m16.14-3.87v-.25a2.25 2.25 0 0 0-4.35-.82 2.68 2.68 0 0 0 .1 5.36h3.34a2.25 2.25 0 0 0 .9-4.3m.37 2.32a1.3 1.3 0 0 1-1.25 1.02h-3.34a1.73 1.73 0 0 1 0-3.46h.21a.5.5 0 0 0 .52-.37 1.3 1.3 0 1 1 2.5.65.5.5 0 0 0 .36.62c.7.15 1.15.84 1 1.54"/></g><defs><clipPath id="a"><path fill="#fff" d="M0 0h25v25h-25z"/></clipPath></defs></symbol><use xlink:href="#sprite-mountain" width="25" height="25" y="125"/><view id="sprite-mountain-view" viewBox="0 125 25 25"/><symbol id="sprite-pine-tree" fill="none" viewBox="0 0 25 25"><g clip-path="url(#a)"><path fill="#fff" d="M0 0h25v25h-25z"/><path fill="#2D383F" d="m24.6 18.08-4.92-5.61h2.38a.5.5 0 0 0 .4-.8l-3.95-5.19h2a.5.5 0 0 0 .38-.83l-4.82-5.48a.5.5 0 0 0-.75 0l-4.83 5.48a.5.5 0 0 0 .38.83h2.03l-1.22 1.59-3.24-3.7a.5.5 0 0 0-.76 0l-4.12 4.69a.5.5 0 0 0 .38.83h1.58l-3.3 4.32a.5.5 0 0 0 .4.8h1.86l-4.08 4.68a.5.5 0 0 0 .38.83h5.54v3.5c0 .54.44.98.97.98h1.53a.97.97 0 0 0 .98-.97v-3.51h4.16v3.5c0 .55.44.98.97.98h1.53a.97.97 0 0 0 .97-.97v-5.11h6.79a.5.5 0 0 0 .37-.84m-15.8 5.92-1.47.03-.03-3.51h1.5zm5.17-4.48h-12.08l4.1-4.68a.5.5 0 0 0-.39-.84h-1.95l3.3-4.31a.5.5 0 0 0-.4-.8h-1.5l3-3.43 3.01 3.41-2.11 2.8a.5.5 0 0 0 .4.8h2.37l-4.9 5.62a.5.5 0 0 0 .37.83h6.78zm2.47 4.47-1.47.04-.03-5.11h1.5zm.03-6.08h-8.18l4.9-5.61a.5.5 0 0 0-.37-.83h-2.46l3.96-5.18a.5.5 0 0 0-.4-.8h-1.91l3.72-4.23 3.7 4.22h-1.94a.5.5 0 0 0-.4.81l3.94 5.18h-2.44a.5.5 0 0 0-.38.83l4.9 5.61z"/></g><defs><clipPath id="a"><path fill="#fff" d="M0 0h25v25h-25z"/></clipPath></defs></symbol><use xlink:href="#sprite-pine-tree" width="25" height="25" y="150"/><view id="sprite-pine-tree-view" viewBox="0 150 25 25"/><symbol id="sprite-place-icon" fill="none" viewBox="0 0 9 12"><path fill="#fff" d="M4.5 0a4.46 4.46 0 0 0-4.5 4.42q0 .95.4 1.8a28 28 0 0 0 3.91 5.7.25.25 0 0 0 .38 0c.63-.73 2.8-3.28 3.92-5.7a4 4 0 0 0 .39-1.8 4.46 4.46 0 0 0-4.5-4.42m0 6.71a2.3 2.3 0 0 1-2.34-2.3c0-1.26 1.05-2.29 2.34-2.29s2.34 1.03 2.34 2.3-1.05 2.3-2.34 2.3"/></symbol><use xlink:href="#sprite-place-icon" width="9" height="12" y="175"/><view id="sprite-place-icon-view" viewBox="0 175 9 12"/><symbol id="sprite-small-arrow" fill="none" viewBox="0 0 9 14"><path stroke="#2D383F" stroke-width="2" d="m1.5 13 6-6-6-6"/></symbol><use xlink:href="#sprite-small-arrow" width="9" height="14" y="187"/><view id="sprite-small-arrow-view" viewBox="0 187 9 14"/><symbol id="sprite-star-in" fill="none" viewBox="0 0 16 16"><path fill="#fff" d="m7.63 11.7 4.72 2.6-1.25-4.92 4.17-3.31-5.5-.43-2.14-4.64-2.14 4.64-5.49.43 4.17 3.31-1.25 4.92z"/></symbol><use xlink:href="#sprite-star-in" width="16" height="16" y="201"/><view id="sprite-star-in-view" viewBox="0 201 16 16"/><symbol id="sprite-star-out" fill="none" viewBox="0 0 16 14"><path fill="#fff" fill-rule="evenodd" d="m7.63 9.55 3.19 1.76-.84-3.31 2.68-2.13-3.54-.28-1.49-3.2-1.48 3.2-3.54.28 2.68 2.13-.84 3.3zm-4.71 3.75 1.25-4.92-4.17-3.31 5.49-.43 2.14-4.64 2.15 4.64 5.49.43-4.16 3.31 1.24 4.92-4.71-2.6z" clip-rule="evenodd"/></symbol><use xlink:href="#sprite-star-out" width="16" height="14" y="217"/><view id="sprite-star-out-view" viewBox="0 217 16 14"/><symbol id="sprite-sun" fill="none" viewBox="0 0 20 20"><path fill="#fff" d="M13.55 6.46a5 5 0 0 0-3.55-1.49 5 5 0 0 0-3.54 1.49c-.9.9-1.49 2.17-1.49 3.54a5.05 5.05 0 0 0 5.03 5.03 5 5 0 0 0 3.55-1.48c.9-.9 1.48-2.18 1.48-3.55a5 5 0 0 0-1.48-3.54m-.96 6.13a3.7 3.7 0 0 1-2.59 1.06 3.7 3.7 0 0 1-2.6-1.06 3.7 3.7 0 0 1-1.05-2.59 3.7 3.7 0 0 1 1.06-2.6 3.7 3.7 0 0 1 2.59-1.05 3.7 3.7 0 0 1 2.6 1.06 3.7 3.7 0 0 1 1.05 2.59 3.7 3.7 0 0 1-1.06 2.6m6.72-3.29h-2.03a.7.7 0 0 0-.7.69.7.7 0 0 0 .7.69h2.03a.7.7 0 0 0 .69-.69.7.7 0 0 0-.69-.69m-9.31 7.28a.7.7 0 0 0-.69.68v2.04a.7.7 0 0 0 .69.69.7.7 0 0 0 .69-.69v-2.03a.7.7 0 0 0-.69-.7m7.06-.47-1.45-1.45c-.24-.27-.69-.27-.95 0a.67.67 0 0 0 0 .95l1.45 1.45a.67.67 0 0 0 .95 0 .67.67 0 0 0 0-.95m-7.06-16.11a.7.7 0 0 0-.69.69v2.04a.7.7 0 0 0 .69.68.7.7 0 0 0 .69-.69v-2.03a.7.7 0 0 0-.69-.69m7.09 2.94a.67.67 0 0 0-.95 0l-1.46 1.45a.67.67 0 0 0 0 .95c.24.27.69.27.95 0l1.46-1.45a.67.67 0 0 0 0-.95m-14.36 6.37h-2.04a.7.7 0 0 0-.69.69c0 .37.3.69.69.69h2.04a.7.7 0 0 0 .68-.69.7.7 0 0 0-.69-.69m2.6 5.35c-.24-.27-.69-.27-.95 0l-1.46 1.45a.67.67 0 0 0 0 .95.67.67 0 0 0 .95 0l1.46-1.45a.67.67 0 0 0 0-.95m0-10.27-1.46-1.45a.67.67 0 0 0-.95 0 .67.67 0 0 0 0 .95l1.46 1.45a.67.67 0 0 0 .95 0 .67.67 0 0 0 0-.95"/></symbol><use xlink:href="#sprite-sun" width="20" height="20" y="231"/><view id="sprite-sun-view" viewBox="0 231 20 20"/><symbol id="sprite-vk" fill="none" viewBox="0 0 14 8"><path fill="#2D383F" d="m13.93 7.23-.05-.1q-.37-.65-1.4-1.6v-.02l-.02-.01h-.01a8 8 0 0 1-.59-.6q-.23-.3-.1-.6.08-.22.65-.95l.48-.62q1.26-1.68 1.09-2.15l-.04-.07q-.05-.07-.23-.12a1 1 0 0 0-.47-.02l-2.1.01h-.14l-.1.03-.03.02-.03.02-.08.07-.07.13a12 12 0 0 1-.78 1.65q-.27.45-.5.78t-.38.49l-.27.25q-.13.1-.2.08l-.12-.03-.16-.18a1 1 0 0 1-.09-.28 3 3 0 0 1-.02-.65l.01-.3.01-.6.02-.52v-.4l-.02-.34-.08-.23a.4.4 0 0 0-.15-.17l-.24-.1a5 5 0 0 0-.98-.1q-1.36-.01-1.75.18a1 1 0 0 0-.27.22q-.13.16-.04.17.44.07.62.32l.04.08q.05.1.1.34t.07.53q.04.54 0 .91l-.07.6a1 1 0 0 1-.18.5l-.04.04-.2.03q-.1 0-.25-.1a2 2 0 0 1-.3-.28 4 4 0 0 1-.35-.5 9 9 0 0 1-.41-.76l-.12-.21-.3-.6-.33-.75a.5.5 0 0 0-.17-.24l-.04-.02a1 1 0 0 0-.29-.1h-2q-.3 0-.41.15l-.03.04-.02.12q0 .08.04.2.44 1.02.96 1.98.5.96.89 1.54t.77 1.1l.52.67.2.21.18.18q.18.18.52.42.34.25.75.48.41.24.96.39t1.06.12h.84q.26-.02.39-.16l.03-.04.05-.13.03-.2q-.01-.32.04-.57a2 2 0 0 1 .13-.38 1 1 0 0 1 .28-.32l.06-.03q.17-.05.4.12.25.17.45.42l.5.57q.3.31.51.46l.15.1q.14.08.38.15.23.08.4.04l1.87-.03q.28 0 .43-.1.15-.08.18-.2v-.24z"/></symbol><use xlink:href="#sprite-vk" width="14" height="8" y="251"/><view id="sprite-vk-view" viewBox="0 251 14 8"/></svg>
